inDegrees=yes
DataType=double
version=3
OpenSimVersion=4.5-2024-07-22-fc2981e9e
endheader
time	pelvis_tx	pelvis_ty	pelvis_tz	pelvis_tilt	pelvis_list	pelvis_rotation	hip_flexion_r	hip_adduction_r	hip_rotation_r	knee_angle_r	ankle_angle_r	hip_flexion_l	hip_adduction_l	hip_rotation_l	knee_angle_l	ankle_angle_l	lumbar_extension	lumbar_bending	lumbar_rotation	arm_flex_r	arm_add_r	arm_rot_r	elbow_flex_r	pro_sup_r	arm_flex_l	arm_add_l	arm_rot_l	elbow_flex_l	pro_sup_l	subtalar_angle_r	mtp_angle_r	subtalar_angle_l	mtp_angle_l	wrist_flex_r	wrist_dev_r	wrist_flex_l	wrist_dev_l	R.ASIS_tx	R.ASIS_ty	R.ASIS_tz	L.ASIS_tx	L.ASIS_ty	L.ASIS_tz	V.Sacral_tx	V.Sacral_ty	V.Sacral_tz	R.Thigh.Upper_tx	R.Thigh.Upper_ty	R.Thigh.Upper_tz	R.Thigh.Front_tx	R.Thigh.Front_ty	R.Thigh.Front_tz	R.Thigh.Rear_tx	R.Thigh.Rear_ty	R.Thigh.Rear_tz	L.Thigh.Upper_tx	L.Thigh.Upper_ty	L.Thigh.Upper_tz	L.Thigh.Front_tx	L.Thigh.Front_ty	L.Thigh.Front_tz	L.Thigh.Rear_tx	L.Thigh.Rear_ty	L.Thigh.Rear_tz	R.Shank.Upper_tx	R.Shank.Upper_ty	R.Shank.Upper_tz	R.Shank.Front_tx	R.Shank.Front_ty	R.Shank.Front_tz	R.Shank.Rear_tx	R.Shank.Rear_ty	R.Shank.Rear_tz	L.Shank.Upper_tx	L.Shank.Upper_ty	L.Shank.Upper_tz	L.Shank.Front_tx	L.Shank.Front_ty	L.Shank.Front_tz	L.Shank.Rear_tx	L.Shank.Rear_ty	L.Shank.Rear_tz	R.Heel_tx	R.Heel_ty	R.Heel_tz	R.Midfoot.Sup_tx	R.Midfoot.Sup_ty	R.Midfoot.Sup_tz	R.Midfoot.Lat_tx	R.Midfoot.Lat_ty	R.Midfoot.Lat_tz	R.Toe.Tip_tx	R.Toe.Tip_ty	R.Toe.Tip_tz	L.Heel_tx	L.Heel_ty	L.Heel_tz	L.Midfoot.Sup_tx	L.Midfoot.Sup_ty	L.Midfoot.Sup_tz	L.Midfoot.Lat_tx	L.Midfoot.Lat_ty	L.Midfoot.Lat_tz	L.Toe.Tip_tx	L.Toe.Tip_ty	L.Toe.Tip_tz	Sternum_tx	Sternum_ty	Sternum_tz	R.Acromium_tx	R.Acromium_ty	R.Acromium_tz	L.Acromium_tx	L.Acromium_ty	L.Acromium_tz	R.Bicep_tx	R.Bicep_ty	R.Bicep_tz	L.Bicep_tx	L.Bicep_ty	L.Bicep_tz	R.Elbow_tx	R.Elbow_ty	R.Elbow_tz	L.Elbow_tx	L.Elbow_ty	L.Elbow_tz	R.Wrist.Med_tx	R.Wrist.Med_ty	R.Wrist.Med_tz	R.Wrist.Lat_tx	R.Wrist.Lat_ty	R.Wrist.Lat_tz	L.Wrist.Med_tx	L.Wrist.Med_ty	L.Wrist.Med_tz	L.Wrist.Lat_tx	L.Wrist.Lat_ty	L.Wrist.Lat_tz	R.Toe.Lat_tx	R.Toe.Lat_ty	R.Toe.Lat_tz	R.Toe.Med_tx	R.Toe.Med_ty	R.Toe.Med_tz	L.Toe.Lat_tx	L.Toe.Lat_ty	L.Toe.Lat_tz	L.Toe.Med_tx	L.Toe.Med_ty	L.Toe.Med_tz	R.Temple_tx	R.Temple_ty	R.Temple_tz	L.Temple_tx	L.Temple_ty	L.Temple_tz	Top.Head_tx	Top.Head_ty	Top.Head_tz
7.497273092369479	0.809958952804158	0.9467452051500125	-0.1893272187432082	1.558325314424729	-7.066016419095109	-2.517212568121923	-1.86782055755779	12.84294641092119	5.728539373524828	-37.5295973040912	21.92760209533408	29.95877398245013	-10.07504060617043	-3.877858943198719	-94.73701645061159	-1.952224554053643	-13.55366494151896	8.05471712566964	10.13635863783152	-10.86733211393808	-40.14537380235532	-2.906790880189165	83.25700438599375	109.9880526799717	-24.13684804796862	-21.79768581062375	19.42840603343246	60.34453811017497	96.99167914866757	0	0	0	0	0	0	0	0	0.8324628187573825	0.9885618736617059	-0.06348958189227491	0.8350793856319397	0.9711781517434451	-0.316518081608788	0.6380183910016538	1.003531419177889	-0.2046518556012285	0.766641090434678	0.6748848763760928	-0.03091353230569339	0.833439679711786	0.6226389859792106	-0.1008715277321049	0.7414905792983674	0.5776326466312313	-0.04480572045357897	0.8858048221781254	0.7018933289818109	-0.3722692257547839	0.9687528637538401	0.6655514250413437	-0.2967556969785022	0.9281899736735193	0.5789597115709914	-0.3613731712497046	0.6926195837089497	0.3873171614150725	-0.07123698573588456	0.6977582751996182	0.3116697190574064	-0.1330495063382941	0.6393201389321954	0.3224817732199391	-0.07369822560831545	0.8646562958398323	0.4647423965674469	-0.3535960833640444	0.8464929140585905	0.3723087990432323	-0.2990731182754545	0.7985848829222799	0.4421536491259155	-0.3493641512308055	0.3847882107276124	0.1032258701015838	-0.1548279772525394	0.5243672205173594	0.0720991603567213	-0.2026911290975666	0.4978038534892469	0.0653348629624383	-0.1005349734278289	0.6544407182754501	0.04213054248051013	-0.1777644135624853	0.5201157924498024	0.3395004624167229	-0.2558615157547837	0.5844981724970519	0.214779751783603	-0.2116200546633591	0.5652151772218335	0.2160658126576873	-0.3112914554901958	0.6497740129931555	0.1114772955303557	-0.2438939404086933	0.905630946246161	1.329199377188756	-0.2209805639971655	0.8268356713489257	1.417948581325302	0.005832800297661071	0.7742217653602639	1.450122898632177	-0.4020676362556106	0.7461772002149789	1.254365081545004	0.1030632528159698	0	0	0	0.7183415465863471	1.173123426357194	0.161450518941649	0.5758979689841702	1.206254197760455	-0.4785300445357898	0.9525052593716065	1.065176105794946	0.1578596185400414	0.9637261466477696	1.082807577365936	0.09914461767068156	0.6763214934443635	0.9647366185707552	-0.4646197510347274	0.7220806012875011	0.9899714070092147	-0.4161698767375389	0.5850793841719776	0.03758099508386481	-0.0960188798204583	0.5838407786085473	0.02600226424049141	-0.2111128358421923	0.5923445294023211	0.1508003295251575	-0.3250590667115518	0.5967907608788152	0.1428670989014865	-0.2115668684927944	0.9723716224167257	1.560382375379164	-0.1389160966879285	0.9802259574887785	1.566487366645406	-0.2807466257429722	1.039973989433026	1.644204203170329	-0.2187745925868182
7.517319277108435	0.8137812584412653	0.9581989583433738	-0.1903607647816265	1.110620565899838	-5.120626317733382	-2.712011734879516	-10.72168518519974	9.735709288290581	7.501154613068538	-28.4322008805796	16.21856771111803	34.21302224754147	-7.354684503087278	-4.932805997097168	-88.03847360983038	1.322562028339664	-12.46886476830193	6.121507948655823	12.87725726006782	-10.72009294887425	-40.12667063910767	-5.680825111317822	90.09666674353556	111.8036243919353	-28.75732430210854	-23.42637587188257	17.68280221890056	62.94179380016572	95.79746200305343	0	0	0	0	0	0	0	0	0.8358006265323796	0.9944883564533135	-0.06267865849021084	0.8381942347552712	0.9855958387989461	-0.3158359197590361	0.6420550081852411	1.015908310689006	-0.2056258333923193	0.7357277580835837	0.6839423459751509	-0.03148181041039158	0.7955913217206317	0.6223276345858435	-0.1006388773493976	0.6974074593260533	0.5908610402108438	-0.0442925549058735	0.90139222623494	0.7246681545218379	-0.3734427163591867	0.9859641990060244	0.6950661898230427	-0.2966639207906627	0.9512445558810245	0.6044841496950306	-0.3594030792281626	0.6284491171009023	0.4028277830384042	-0.06843260753388548	0.6337890327371974	0.3251853636219884	-0.1276269401581324	0.5741549077334324	0.3385422639118982	-0.0703528126731927	0.8998561973945789	0.4755451188478917	-0.3515185174246988	0.8961674215210853	0.3822764815587351	-0.2950389820143072	0.8380719928802719	0.4417697867356927	-0.3475892752974397	0.3230734985542157	0.1250640062500007	-0.1518070267808734	0.4557525628765046	0.07952639051204846	-0.2005749928840361	0.4294905834073781	0.07361369833960872	-0.09872976432228911	0.57683724510542	0.04056866573795181	-0.1787487447929217	0.582378567590363	0.2884870206137036	-0.2524831138591866	0.672498931430725	0.183194871415662	-0.206388470568524	0.6551462794427733	0.1789649584036137	-0.3059251287085842	0.7619210101581351	0.09901887312876494	-0.2383852704292167	0.9051959572063254	1.343173675169428	-0.2274734547063254	0.8366214489269581	1.43308364185994	0.0027356924924698	0.7647465261784636	1.464047651987952	-0.400162931129518	0.7676762422590366	1.264456337213856	0.1024309340474397	0	0	0	0.7443557390436751	1.181753448862952	0.1603825141528614	0.5497067120368971	1.237017795926206	-0.4715125571799697	0.9875276600602416	1.102822157503766	0.1355045858057224	0.9916168898644583	1.123117573512802	0.07697149297816212	0.6423313992394571	0.9928500235730429	-0.4683949977371989	0.6930438325941259	1.015744908975904	-0.4234133310203315	0.5104272023381008	0.03746392198042174	-0.09598272433358435	0.5081378995444261	0.02843786761671701	-0.2119404522966868	0.6964639012650626	0.121415225470632	-0.3191916435805722	0.7005288593674722	0.115945371965361	-0.2054090906852408	0.971172514623494	1.573109147978163	-0.1437920470331326	0.9777153491152109	1.578821911129518	-0.2858484977560242	1.037243305323795	1.657224277138554	-0.2246833063365965
7.53736546184739	0.8188869742782897	0.9700195389463738	-0.1922100581266242	0.5507387060359014	-2.65595719197021	-2.56059700139617	-19.40869003014654	5.957838273307313	7.909905026366639	-18.59422465692409	6.963470760921234	36.83222501863692	-3.996746146288651	-6.265932721346575	-78.14040574354584	3.772143591587543	-11.25377271618473	3.720801553595535	14.88053868101584	-10.6956532159107	-39.73885649503189	-7.919075459574786	97.57967215793535	114.2149565900449	-33.32287314601469	-25.20174407798489	15.56856630090477	65.45874428976614	94.35423793770374	0	0	0	0	0	0	0	0	0.841540324334987	1.001561219175526	-0.0628597517363572	0.8421695100496102	1.001028577533664	-0.3155173828703048	0.6480503703212852	1.029414372778171	-0.2063754418284904	0.707394713229388	0.6984706853531776	-0.0321598184715332	0.7599646676116226	0.6284886542357667	-0.1000507815426411	0.655988583387668	0.6124902504323178	-0.04470877480037799	0.9113503402740374	0.7448400283675881	-0.3732679587195842	0.9986538742782898	0.7201827963595561	-0.2970001390786676	0.9672361571367825	0.6267915985589418	-0.356551132605717	0.5676101813394751	0.429639840850461	-0.06632705729742498	0.5745308241011098	0.3490317495416965	-0.1215491953012048	0.5131999571296947	0.3650225820340187	-0.0670306483864871	0.9274504792747462	0.4829784098039216	-0.3483491930167729	0.941589130106308	0.3917947291731633	-0.292091891263879	0.872815725716986	0.4377538594637372	-0.3442012537373021	0.2676745673801082	0.1568583476895822	-0.1475633877651783	0.3895998716678473	0.09284084056461155	-0.198297792248996	0.3637011295936682	0.08849571235057897	-0.09656466457122606	0.4979435697424987	0.04133527585400428	-0.180416985005906	0.6570397560146476	0.2331737451641857	-0.2477817839900779	0.7690583897802986	0.1554903726742261	-0.2007573508717221	0.7531284294708254	0.1453185034231039	-0.299707198669974	0.8769128295511468	0.09461652705646115	-0.2327134825041341	0.9058393034325538	1.358896378958186	-0.2337934675360265	0.8465264225608317	1.449867343905032	-0.001085492095440625	0.7575829138247105	1.47881677838885	-0.3974049942593905	0.7875476006709191	1.276495050290574	0.100262804679896	0	0	0	0.7677140868154975	1.19205672421923	0.1571113551169383	0.5289428486723362	1.269038112820695	-0.4634206063170327	1.0139981105528	1.143646191755257	0.1102572577817149	1.010533778088826	1.165527259555871	0.05264676994566479	0.6128606401275689	1.022338157703756	-0.470901783524687	0.6680258270635481	1.042529541816679	-0.4296520077699032	0.4351043159697607	0.04080758208126631	-0.09627889270729979	0.4314122520883527	0.03603595904323186	-0.2126938120907158	0.8066079808457369	0.09894398981100858	-0.3126180321781242	0.8119728674108208	0.09743360498464435	-0.1992480259815733	0.9704107053106544	1.587122679480274	-0.1488042499598394	0.9754798265083865	1.592411860576423	-0.2912176808197496	1.034336482095441	1.671715484497992	-0.2308634110441768
7.557411646586346	0.8234636740739431	0.9793723098558945	-0.1943861365662652	-0.20282292811131	-0.3985158713204788	-2.181555770249207	-25.95747302356039	2.869432564183672	7.142245449267598	-11.44555503858585	-2.942319148063321	37.98296748442714	-0.7680315235753281	-7.241983872297454	-66.72984373836934	5.071601016743478	-10.00988219655085	1.563782826489396	16.23114056495989	-10.5814535659544	-39.11335848923455	-9.320560187339996	104.4719217049838	116.5301867937646	-37.14582689389457	-26.77926522631947	13.5098316210299	67.49836483938823	93.55186207742733	0	0	0	0	0	0	0	0	0.8480306081195373	1.007914197988425	-0.06394069240018907	0.8456896993987717	1.013777909077487	-0.3156604216430428	0.6543280923375859	1.041011444479093	-0.206500427587999	0.6863951230120473	0.7134247123387676	-0.03305304515828023	0.7325066955941402	0.6372589299373971	-0.09993421833569574	0.6242655794188505	0.6350974692393112	-0.04604052838766841	0.915511371510749	0.7579641284183799	-0.3720821758315614	1.00568525113631	0.7361173669111747	-0.2972460704772029	0.9751399694838179	0.6410513160867003	-0.3532511011351285	0.5199102981951315	0.4586852931242631	-0.06565595415072054	0.5278460454583018	0.3751815909071594	-0.1172303294956294	0.4652673048263622	0.3939616464032615	-0.06492927816087875	0.9463967324616119	0.4849376247165131	-0.3445602934089296	0.978587225389796	0.3985606298334518	-0.2901930485719347	0.9013530235636678	0.4297982751346558	-0.3402063804205053	0.2230491193491594	0.1939866088944031	-0.1428573834124732	0.3316876874438905	0.1116951012768733	-0.1965297608232931	0.3063331806118565	0.1090463715166561	-0.09458785644342066	0.4255879005976814	0.04571237293527083	-0.1824532492381291	0.7334874777462831	0.1828422597495842	-0.2429097478029764	0.8605629092215967	0.1353021041058343	-0.1958871700271673	0.8453952130096902	0.1193876397235992	-0.2940135828041576	0.9789001393964138	0.09696791629222799	-0.2278457447070633	0.9073821268651077	1.373079550175999	-0.2394360239617295	0.8552302224911414	1.464212879568864	-0.005185468241200306	0.7528656189144812	1.491353892413183	-0.3945138164871249	0.8035192090255145	1.286647739395228	0.09732919794590109	0	0	0	0.7861583075171281	1.20034213376447	0.1528354821568625	0.5141673840609491	1.296438487723838	-0.456068407879754	1.030981507613986	1.179422131053628	0.08649303986179901	1.020836217373022	1.202076844708246	0.03052268827781611	0.5904638880592951	1.047697317012758	-0.4728228034987008	0.6486898052551374	1.06529895818096	-0.4343510489262936	0.3664403063973509	0.04936003203047544	-0.09700698944601942	0.3616011709520401	0.04968290613867321	-0.213335575157099	0.9074993395452445	0.08522006515827971	-0.3067353985766593	0.9154043278525917	0.08893956131703265	-0.1942113166017007	0.9700910565816206	1.599263448132531	-0.1533344031845029	0.9737210190763051	1.604201572648241	-0.2961523393704231	1.031737075194897	1.684413588786913	-0.2365086179754314
